<mxfile host="Electron" agent="Mozilla/5.0 (Macintosh; Intel Mac OS X 10_15_7) AppleWebKit/537.36 (KHTML, like Gecko) draw.io/24.7.8 Chrome/128.0.6613.36 Electron/32.0.1 Safari/537.36" version="24.7.8">
  <diagram name="Page-1" id="1aMalgyJoGSmzjnr1-yR">
    <mxGraphModel dx="876" dy="616" grid="1" gridSize="10" guides="1" tooltips="1" connect="1" arrows="1" fold="1" page="1" pageScale="1" pageWidth="850" pageHeight="1100" math="0" shadow="0">
      <root>
        <mxCell id="0" />
        <mxCell id="1" parent="0" />
        <mxCell id="hfKLFoB1jKgI26_XCXUh-95" value="prometheus" style="rounded=0;whiteSpace=wrap;html=1;fillColor=#ffe6cc;strokeColor=#d79b00;" vertex="1" parent="1">
          <mxGeometry x="360" y="10" width="120" height="60" as="geometry" />
        </mxCell>
        <mxCell id="hfKLFoB1jKgI26_XCXUh-100" style="edgeStyle=orthogonalEdgeStyle;rounded=0;orthogonalLoop=1;jettySize=auto;html=1;entryX=0;entryY=0.5;entryDx=0;entryDy=0;" edge="1" parent="1" source="hfKLFoB1jKgI26_XCXUh-96" target="hfKLFoB1jKgI26_XCXUh-97">
          <mxGeometry relative="1" as="geometry" />
        </mxCell>
        <mxCell id="hfKLFoB1jKgI26_XCXUh-101" style="edgeStyle=orthogonalEdgeStyle;rounded=0;orthogonalLoop=1;jettySize=auto;html=1;entryX=0;entryY=0.5;entryDx=0;entryDy=0;" edge="1" parent="1" source="hfKLFoB1jKgI26_XCXUh-96" target="hfKLFoB1jKgI26_XCXUh-98">
          <mxGeometry relative="1" as="geometry" />
        </mxCell>
        <mxCell id="hfKLFoB1jKgI26_XCXUh-102" style="edgeStyle=orthogonalEdgeStyle;rounded=0;orthogonalLoop=1;jettySize=auto;html=1;entryX=0;entryY=0.5;entryDx=0;entryDy=0;" edge="1" parent="1" source="hfKLFoB1jKgI26_XCXUh-96" target="hfKLFoB1jKgI26_XCXUh-99">
          <mxGeometry relative="1" as="geometry" />
        </mxCell>
        <mxCell id="hfKLFoB1jKgI26_XCXUh-96" value="metrics" style="ellipse;whiteSpace=wrap;html=1;fillColor=#ffe6cc;strokeColor=#d79b00;" vertex="1" parent="1">
          <mxGeometry x="30" y="120" width="100" height="30" as="geometry" />
        </mxCell>
        <mxCell id="hfKLFoB1jKgI26_XCXUh-97" value="infrastrucre" style="ellipse;whiteSpace=wrap;html=1;" vertex="1" parent="1">
          <mxGeometry x="100" y="170" width="100" height="30" as="geometry" />
        </mxCell>
        <mxCell id="hfKLFoB1jKgI26_XCXUh-98" value="application" style="ellipse;whiteSpace=wrap;html=1;" vertex="1" parent="1">
          <mxGeometry x="100" y="210" width="100" height="30" as="geometry" />
        </mxCell>
        <mxCell id="hfKLFoB1jKgI26_XCXUh-99" value="network" style="ellipse;whiteSpace=wrap;html=1;" vertex="1" parent="1">
          <mxGeometry x="100" y="250" width="100" height="30" as="geometry" />
        </mxCell>
        <mxCell id="hfKLFoB1jKgI26_XCXUh-151" style="edgeStyle=orthogonalEdgeStyle;rounded=0;orthogonalLoop=1;jettySize=auto;html=1;" edge="1" parent="1" source="hfKLFoB1jKgI26_XCXUh-103" target="hfKLFoB1jKgI26_XCXUh-150">
          <mxGeometry relative="1" as="geometry" />
        </mxCell>
        <mxCell id="hfKLFoB1jKgI26_XCXUh-103" value="Prometheus Server" style="rounded=0;whiteSpace=wrap;html=1;fillColor=none;strokeColor=#d79b00;verticalAlign=top;" vertex="1" parent="1">
          <mxGeometry x="230" y="450" width="330" height="210" as="geometry" />
        </mxCell>
        <mxCell id="hfKLFoB1jKgI26_XCXUh-160" style="edgeStyle=orthogonalEdgeStyle;rounded=0;orthogonalLoop=1;jettySize=auto;html=1;" edge="1" parent="1" source="hfKLFoB1jKgI26_XCXUh-104" target="hfKLFoB1jKgI26_XCXUh-105">
          <mxGeometry relative="1" as="geometry" />
        </mxCell>
        <mxCell id="hfKLFoB1jKgI26_XCXUh-165" style="edgeStyle=orthogonalEdgeStyle;rounded=0;orthogonalLoop=1;jettySize=auto;html=1;entryX=0.5;entryY=0;entryDx=0;entryDy=0;" edge="1" parent="1" source="hfKLFoB1jKgI26_XCXUh-104" target="hfKLFoB1jKgI26_XCXUh-161">
          <mxGeometry relative="1" as="geometry" />
        </mxCell>
        <mxCell id="hfKLFoB1jKgI26_XCXUh-181" style="edgeStyle=orthogonalEdgeStyle;rounded=0;orthogonalLoop=1;jettySize=auto;html=1;" edge="1" parent="1" source="hfKLFoB1jKgI26_XCXUh-104" target="hfKLFoB1jKgI26_XCXUh-177">
          <mxGeometry relative="1" as="geometry">
            <Array as="points">
              <mxPoint x="290" y="410" />
              <mxPoint x="290" y="410" />
            </Array>
          </mxGeometry>
        </mxCell>
        <mxCell id="hfKLFoB1jKgI26_XCXUh-104" value="Retrival" style="rounded=0;whiteSpace=wrap;html=1;fillColor=#e1d5e7;strokeColor=#9673a6;" vertex="1" parent="1">
          <mxGeometry x="250" y="525" width="80" height="85" as="geometry" />
        </mxCell>
        <mxCell id="hfKLFoB1jKgI26_XCXUh-105" value="Storage" style="rounded=0;whiteSpace=wrap;html=1;fillColor=#d5e8d4;strokeColor=#82b366;" vertex="1" parent="1">
          <mxGeometry x="360" y="525" width="80" height="85" as="geometry" />
        </mxCell>
        <mxCell id="hfKLFoB1jKgI26_XCXUh-136" style="edgeStyle=orthogonalEdgeStyle;rounded=0;orthogonalLoop=1;jettySize=auto;html=1;entryX=1;entryY=0.5;entryDx=0;entryDy=0;" edge="1" parent="1" source="hfKLFoB1jKgI26_XCXUh-106" target="hfKLFoB1jKgI26_XCXUh-105">
          <mxGeometry relative="1" as="geometry" />
        </mxCell>
        <mxCell id="hfKLFoB1jKgI26_XCXUh-106" value="HTTP&lt;br&gt;SERVER" style="rounded=0;whiteSpace=wrap;html=1;fillColor=#1ba1e2;fontColor=#ffffff;strokeColor=#006EAF;" vertex="1" parent="1">
          <mxGeometry x="470" y="525" width="80" height="85" as="geometry" />
        </mxCell>
        <mxCell id="hfKLFoB1jKgI26_XCXUh-108" style="edgeStyle=orthogonalEdgeStyle;rounded=0;orthogonalLoop=1;jettySize=auto;html=1;entryX=0.5;entryY=0;entryDx=0;entryDy=0;entryPerimeter=0;" edge="1" parent="1" source="hfKLFoB1jKgI26_XCXUh-105" target="hfKLFoB1jKgI26_XCXUh-109">
          <mxGeometry relative="1" as="geometry">
            <mxPoint x="400" y="760" as="targetPoint" />
          </mxGeometry>
        </mxCell>
        <mxCell id="hfKLFoB1jKgI26_XCXUh-110" value="indexing" style="edgeLabel;html=1;align=center;verticalAlign=middle;resizable=0;points=[];" vertex="1" connectable="0" parent="hfKLFoB1jKgI26_XCXUh-108">
          <mxGeometry x="-0.1167" y="-1" relative="1" as="geometry">
            <mxPoint x="1" y="9" as="offset" />
          </mxGeometry>
        </mxCell>
        <mxCell id="hfKLFoB1jKgI26_XCXUh-109" value="SSD" style="shape=cylinder3;whiteSpace=wrap;html=1;boundedLbl=1;backgroundOutline=1;size=15;fillColor=#d5e8d4;strokeColor=#82b366;" vertex="1" parent="1">
          <mxGeometry x="265" y="770" width="270" height="210" as="geometry" />
        </mxCell>
        <mxCell id="hfKLFoB1jKgI26_XCXUh-112" value="" style="endArrow=none;html=1;rounded=0;exitX=0.133;exitY=-0.022;exitDx=0;exitDy=0;exitPerimeter=0;" edge="1" parent="1" source="hfKLFoB1jKgI26_XCXUh-113">
          <mxGeometry width="50" height="50" relative="1" as="geometry">
            <mxPoint x="130" y="1230" as="sourcePoint" />
            <mxPoint x="720" y="1230" as="targetPoint" />
          </mxGeometry>
        </mxCell>
        <mxCell id="hfKLFoB1jKgI26_XCXUh-113" value="190532532" style="text;html=1;align=center;verticalAlign=middle;whiteSpace=wrap;rounded=0;" vertex="1" parent="1">
          <mxGeometry x="110" y="1230" width="60" height="30" as="geometry" />
        </mxCell>
        <mxCell id="hfKLFoB1jKgI26_XCXUh-114" value="190532662" style="text;html=1;align=center;verticalAlign=middle;whiteSpace=wrap;rounded=0;" vertex="1" parent="1">
          <mxGeometry x="210" y="1230" width="60" height="30" as="geometry" />
        </mxCell>
        <mxCell id="hfKLFoB1jKgI26_XCXUh-115" value="190532662" style="text;html=1;align=center;verticalAlign=middle;whiteSpace=wrap;rounded=0;" vertex="1" parent="1">
          <mxGeometry x="330" y="1230" width="60" height="30" as="geometry" />
        </mxCell>
        <mxCell id="hfKLFoB1jKgI26_XCXUh-116" value="190535555" style="text;html=1;align=center;verticalAlign=middle;whiteSpace=wrap;rounded=0;" vertex="1" parent="1">
          <mxGeometry x="460" y="1230" width="60" height="30" as="geometry" />
        </mxCell>
        <mxCell id="hfKLFoB1jKgI26_XCXUh-117" value="1905666" style="text;html=1;align=center;verticalAlign=middle;whiteSpace=wrap;rounded=0;" vertex="1" parent="1">
          <mxGeometry x="620" y="1230" width="60" height="30" as="geometry" />
        </mxCell>
        <mxCell id="hfKLFoB1jKgI26_XCXUh-118" value="18:05" style="text;html=1;align=center;verticalAlign=middle;whiteSpace=wrap;rounded=0;" vertex="1" parent="1">
          <mxGeometry x="110" y="1250" width="60" height="30" as="geometry" />
        </mxCell>
        <mxCell id="hfKLFoB1jKgI26_XCXUh-120" value="18:06" style="text;html=1;align=center;verticalAlign=middle;whiteSpace=wrap;rounded=0;" vertex="1" parent="1">
          <mxGeometry x="205" y="1250" width="60" height="30" as="geometry" />
        </mxCell>
        <mxCell id="hfKLFoB1jKgI26_XCXUh-121" value="18:07" style="text;html=1;align=center;verticalAlign=middle;whiteSpace=wrap;rounded=0;" vertex="1" parent="1">
          <mxGeometry x="330" y="1250" width="60" height="30" as="geometry" />
        </mxCell>
        <mxCell id="hfKLFoB1jKgI26_XCXUh-122" value="cpu" style="rounded=0;whiteSpace=wrap;html=1;fillColor=#f8cecc;strokeColor=#b85450;" vertex="1" parent="1">
          <mxGeometry x="65" y="1100" width="45" height="120" as="geometry" />
        </mxCell>
        <mxCell id="hfKLFoB1jKgI26_XCXUh-123" value="0" style="text;html=1;align=center;verticalAlign=middle;whiteSpace=wrap;rounded=0;" vertex="1" parent="1">
          <mxGeometry x="90" y="1200" width="60" height="30" as="geometry" />
        </mxCell>
        <mxCell id="hfKLFoB1jKgI26_XCXUh-124" value="50" style="text;html=1;align=center;verticalAlign=middle;whiteSpace=wrap;rounded=0;" vertex="1" parent="1">
          <mxGeometry x="90" y="1145" width="60" height="30" as="geometry" />
        </mxCell>
        <mxCell id="hfKLFoB1jKgI26_XCXUh-125" value="&lt;span style=&quot;color: rgb(0, 0, 0); font-family: Helvetica; font-size: 12px; font-style: normal; font-variant-ligatures: normal; font-variant-caps: normal; font-weight: 400; letter-spacing: normal; orphans: 2; text-align: center; text-indent: 0px; text-transform: none; widows: 2; word-spacing: 0px; -webkit-text-stroke-width: 0px; white-space: normal; background-color: rgb(251, 251, 251); text-decoration-thickness: initial; text-decoration-style: initial; text-decoration-color: initial; display: inline !important; float: none;&quot;&gt;100&lt;/span&gt;" style="text;whiteSpace=wrap;html=1;" vertex="1" parent="1">
          <mxGeometry x="115" y="1100" width="50" height="40" as="geometry" />
        </mxCell>
        <mxCell id="hfKLFoB1jKgI26_XCXUh-127" value="" style="shape=hexagon;perimeter=hexagonPerimeter2;whiteSpace=wrap;html=1;fixedSize=1;fillColor=#dae8fc;strokeColor=#6c8ebf;" vertex="1" parent="1">
          <mxGeometry x="125" y="1140" width="40" height="40" as="geometry" />
        </mxCell>
        <mxCell id="hfKLFoB1jKgI26_XCXUh-128" value="" style="shape=hexagon;perimeter=hexagonPerimeter2;whiteSpace=wrap;html=1;fixedSize=1;fillColor=#dae8fc;strokeColor=#6c8ebf;size=20;" vertex="1" parent="1">
          <mxGeometry x="340" y="1120" width="40" height="40" as="geometry" />
        </mxCell>
        <mxCell id="hfKLFoB1jKgI26_XCXUh-129" value="" style="shape=hexagon;perimeter=hexagonPerimeter2;whiteSpace=wrap;html=1;fixedSize=1;fillColor=#dae8fc;strokeColor=#6c8ebf;" vertex="1" parent="1">
          <mxGeometry x="210" y="1140" width="40" height="40" as="geometry" />
        </mxCell>
        <mxCell id="hfKLFoB1jKgI26_XCXUh-130" value="" style="shape=hexagon;perimeter=hexagonPerimeter2;whiteSpace=wrap;html=1;fixedSize=1;fillColor=#dae8fc;strokeColor=#6c8ebf;size=265;" vertex="1" parent="1">
          <mxGeometry x="460" y="1120" width="40" height="40" as="geometry" />
        </mxCell>
        <mxCell id="hfKLFoB1jKgI26_XCXUh-139" style="edgeStyle=orthogonalEdgeStyle;rounded=0;orthogonalLoop=1;jettySize=auto;html=1;entryX=1;entryY=0.5;entryDx=0;entryDy=0;" edge="1" parent="1" source="hfKLFoB1jKgI26_XCXUh-138" target="hfKLFoB1jKgI26_XCXUh-106">
          <mxGeometry relative="1" as="geometry" />
        </mxCell>
        <mxCell id="hfKLFoB1jKgI26_XCXUh-140" value="REST API" style="edgeLabel;html=1;align=center;verticalAlign=middle;resizable=0;points=[];" vertex="1" connectable="0" parent="hfKLFoB1jKgI26_XCXUh-139">
          <mxGeometry x="0.2435" y="1" relative="1" as="geometry">
            <mxPoint as="offset" />
          </mxGeometry>
        </mxCell>
        <mxCell id="hfKLFoB1jKgI26_XCXUh-138" value="prometheus web ui" style="rounded=0;whiteSpace=wrap;html=1;fillColor=#dae8fc;strokeColor=#6c8ebf;" vertex="1" parent="1">
          <mxGeometry x="640" y="640" width="120" height="60" as="geometry" />
        </mxCell>
        <mxCell id="hfKLFoB1jKgI26_XCXUh-142" value="PromQL" style="text;html=1;align=center;verticalAlign=middle;whiteSpace=wrap;rounded=0;" vertex="1" parent="1">
          <mxGeometry x="570" y="610" width="60" height="30" as="geometry" />
        </mxCell>
        <mxCell id="hfKLFoB1jKgI26_XCXUh-145" style="edgeStyle=orthogonalEdgeStyle;rounded=0;orthogonalLoop=1;jettySize=auto;html=1;entryX=1;entryY=0.5;entryDx=0;entryDy=0;" edge="1" parent="1" source="hfKLFoB1jKgI26_XCXUh-144" target="hfKLFoB1jKgI26_XCXUh-106">
          <mxGeometry relative="1" as="geometry" />
        </mxCell>
        <mxCell id="hfKLFoB1jKgI26_XCXUh-144" value="Grafana" style="rounded=0;whiteSpace=wrap;html=1;fillColor=#008a00;fontColor=#ffffff;strokeColor=#005700;" vertex="1" parent="1">
          <mxGeometry x="640" y="710" width="120" height="60" as="geometry" />
        </mxCell>
        <mxCell id="hfKLFoB1jKgI26_XCXUh-146" value="PromQL" style="text;html=1;align=center;verticalAlign=middle;whiteSpace=wrap;rounded=0;" vertex="1" parent="1">
          <mxGeometry x="570" y="690" width="60" height="30" as="geometry" />
        </mxCell>
        <mxCell id="hfKLFoB1jKgI26_XCXUh-156" style="edgeStyle=orthogonalEdgeStyle;rounded=0;orthogonalLoop=1;jettySize=auto;html=1;entryX=0;entryY=0.5;entryDx=0;entryDy=0;" edge="1" parent="1" source="hfKLFoB1jKgI26_XCXUh-150" target="hfKLFoB1jKgI26_XCXUh-152">
          <mxGeometry relative="1" as="geometry">
            <Array as="points">
              <mxPoint x="720" y="380" />
              <mxPoint x="720" y="325" />
            </Array>
          </mxGeometry>
        </mxCell>
        <mxCell id="hfKLFoB1jKgI26_XCXUh-157" style="edgeStyle=orthogonalEdgeStyle;rounded=0;orthogonalLoop=1;jettySize=auto;html=1;entryX=0;entryY=0.5;entryDx=0;entryDy=0;" edge="1" parent="1" source="hfKLFoB1jKgI26_XCXUh-150" target="hfKLFoB1jKgI26_XCXUh-153">
          <mxGeometry relative="1" as="geometry" />
        </mxCell>
        <mxCell id="hfKLFoB1jKgI26_XCXUh-158" style="edgeStyle=orthogonalEdgeStyle;rounded=0;orthogonalLoop=1;jettySize=auto;html=1;" edge="1" parent="1" source="hfKLFoB1jKgI26_XCXUh-150" target="hfKLFoB1jKgI26_XCXUh-154">
          <mxGeometry relative="1" as="geometry" />
        </mxCell>
        <mxCell id="hfKLFoB1jKgI26_XCXUh-159" style="edgeStyle=orthogonalEdgeStyle;rounded=0;orthogonalLoop=1;jettySize=auto;html=1;entryX=0;entryY=0.5;entryDx=0;entryDy=0;" edge="1" parent="1" source="hfKLFoB1jKgI26_XCXUh-150" target="hfKLFoB1jKgI26_XCXUh-155">
          <mxGeometry relative="1" as="geometry">
            <Array as="points">
              <mxPoint x="720" y="380" />
              <mxPoint x="720" y="445" />
            </Array>
          </mxGeometry>
        </mxCell>
        <mxCell id="hfKLFoB1jKgI26_XCXUh-150" value="alermanager" style="rounded=0;whiteSpace=wrap;html=1;fillColor=#ffe6cc;strokeColor=#d79b00;" vertex="1" parent="1">
          <mxGeometry x="590" y="360" width="120" height="40" as="geometry" />
        </mxCell>
        <mxCell id="hfKLFoB1jKgI26_XCXUh-152" value="slack" style="rounded=0;whiteSpace=wrap;html=1;fillColor=#f5f5f5;strokeColor=#666666;fontColor=#333333;" vertex="1" parent="1">
          <mxGeometry x="740" y="310" width="80" height="30" as="geometry" />
        </mxCell>
        <mxCell id="hfKLFoB1jKgI26_XCXUh-153" value="opsgine" style="rounded=0;whiteSpace=wrap;html=1;fillColor=#f5f5f5;strokeColor=#666666;fontColor=#333333;" vertex="1" parent="1">
          <mxGeometry x="740" y="350" width="80" height="30" as="geometry" />
        </mxCell>
        <mxCell id="hfKLFoB1jKgI26_XCXUh-154" value="pagerduty" style="rounded=0;whiteSpace=wrap;html=1;fillColor=#f5f5f5;strokeColor=#666666;fontColor=#333333;" vertex="1" parent="1">
          <mxGeometry x="740" y="390" width="80" height="30" as="geometry" />
        </mxCell>
        <mxCell id="hfKLFoB1jKgI26_XCXUh-155" value="email" style="rounded=0;whiteSpace=wrap;html=1;fillColor=#f5f5f5;strokeColor=#666666;fontColor=#333333;" vertex="1" parent="1">
          <mxGeometry x="740" y="430" width="80" height="30" as="geometry" />
        </mxCell>
        <mxCell id="hfKLFoB1jKgI26_XCXUh-161" value="job/Exporters" style="rounded=0;whiteSpace=wrap;html=1;fillColor=#fff2cc;strokeColor=#d6b656;" vertex="1" parent="1">
          <mxGeometry x="40" y="620" width="122.5" height="40" as="geometry" />
        </mxCell>
        <mxCell id="hfKLFoB1jKgI26_XCXUh-162" value="job/Exporters" style="rounded=0;whiteSpace=wrap;html=1;fillColor=#f8cecc;strokeColor=#b85450;" vertex="1" parent="1">
          <mxGeometry x="47.5" y="630" width="122.5" height="40" as="geometry" />
        </mxCell>
        <mxCell id="hfKLFoB1jKgI26_XCXUh-164" value="job/Exporters" style="rounded=0;whiteSpace=wrap;html=1;fillColor=#d5e8d4;strokeColor=#82b366;" vertex="1" parent="1">
          <mxGeometry x="57.5" y="640" width="122.5" height="40" as="geometry" />
        </mxCell>
        <mxCell id="hfKLFoB1jKgI26_XCXUh-166" style="edgeStyle=orthogonalEdgeStyle;rounded=0;orthogonalLoop=1;jettySize=auto;html=1;entryX=0.571;entryY=0.25;entryDx=0;entryDy=0;entryPerimeter=0;" edge="1" parent="1" source="hfKLFoB1jKgI26_XCXUh-104" target="hfKLFoB1jKgI26_XCXUh-161">
          <mxGeometry relative="1" as="geometry" />
        </mxCell>
        <mxCell id="hfKLFoB1jKgI26_XCXUh-167" style="edgeStyle=orthogonalEdgeStyle;rounded=0;orthogonalLoop=1;jettySize=auto;html=1;entryX=0.5;entryY=0;entryDx=0;entryDy=0;fillColor=#60a917;strokeColor=#2D7600;" edge="1" parent="1" source="hfKLFoB1jKgI26_XCXUh-104" target="hfKLFoB1jKgI26_XCXUh-164">
          <mxGeometry relative="1" as="geometry" />
        </mxCell>
        <mxCell id="hfKLFoB1jKgI26_XCXUh-168" value="pull metrics" style="edgeLabel;html=1;align=center;verticalAlign=middle;resizable=0;points=[];" vertex="1" connectable="0" parent="hfKLFoB1jKgI26_XCXUh-167">
          <mxGeometry x="-0.234" y="-2" relative="1" as="geometry">
            <mxPoint x="-2" y="-11" as="offset" />
          </mxGeometry>
        </mxCell>
        <mxCell id="hfKLFoB1jKgI26_XCXUh-169" value="Pushgateway" style="rounded=0;whiteSpace=wrap;html=1;fillColor=#ffe6cc;strokeColor=#d79b00;" vertex="1" parent="1">
          <mxGeometry x="35" y="460" width="90" height="35" as="geometry" />
        </mxCell>
        <mxCell id="hfKLFoB1jKgI26_XCXUh-170" style="edgeStyle=orthogonalEdgeStyle;rounded=0;orthogonalLoop=1;jettySize=auto;html=1;entryX=0.439;entryY=0.952;entryDx=0;entryDy=0;entryPerimeter=0;" edge="1" parent="1" source="hfKLFoB1jKgI26_XCXUh-104" target="hfKLFoB1jKgI26_XCXUh-169">
          <mxGeometry relative="1" as="geometry" />
        </mxCell>
        <mxCell id="hfKLFoB1jKgI26_XCXUh-171" value="short lived jobs" style="rounded=0;whiteSpace=wrap;html=1;" vertex="1" parent="1">
          <mxGeometry x="20" y="330" width="80" height="40" as="geometry" />
        </mxCell>
        <mxCell id="hfKLFoB1jKgI26_XCXUh-172" value="short lived jobs" style="rounded=0;whiteSpace=wrap;html=1;" vertex="1" parent="1">
          <mxGeometry x="30" y="340" width="80" height="40" as="geometry" />
        </mxCell>
        <mxCell id="hfKLFoB1jKgI26_XCXUh-173" value="short lived jobs" style="rounded=0;whiteSpace=wrap;html=1;" vertex="1" parent="1">
          <mxGeometry x="40" y="350" width="80" height="40" as="geometry" />
        </mxCell>
        <mxCell id="hfKLFoB1jKgI26_XCXUh-175" value="" style="edgeStyle=orthogonalEdgeStyle;rounded=0;orthogonalLoop=1;jettySize=auto;html=1;exitX=0.5;exitY=1;exitDx=0;exitDy=0;" edge="1" parent="1" source="hfKLFoB1jKgI26_XCXUh-173" target="hfKLFoB1jKgI26_XCXUh-169">
          <mxGeometry relative="1" as="geometry">
            <mxPoint x="85" y="400" as="sourcePoint" />
          </mxGeometry>
        </mxCell>
        <mxCell id="hfKLFoB1jKgI26_XCXUh-176" value="push metrics" style="edgeLabel;html=1;align=center;verticalAlign=middle;resizable=0;points=[];" vertex="1" connectable="0" parent="1">
          <mxGeometry x="110" y="420.00333333333333" as="geometry" />
        </mxCell>
        <mxCell id="hfKLFoB1jKgI26_XCXUh-177" value="Service discovery" style="rounded=0;whiteSpace=wrap;html=1;fillColor=none;strokeColor=#d79b00;verticalAlign=top;" vertex="1" parent="1">
          <mxGeometry x="265" y="290" width="260" height="90" as="geometry" />
        </mxCell>
        <mxCell id="hfKLFoB1jKgI26_XCXUh-178" value="kubernetes" style="rounded=0;whiteSpace=wrap;html=1;fillColor=#0050ef;fontColor=#ffffff;strokeColor=#001DBC;" vertex="1" parent="1">
          <mxGeometry x="280" y="320" width="80" height="20" as="geometry" />
        </mxCell>
        <mxCell id="hfKLFoB1jKgI26_XCXUh-179" value="file" style="rounded=0;whiteSpace=wrap;html=1;fillColor=#1ba1e2;fontColor=#ffffff;strokeColor=#006EAF;" vertex="1" parent="1">
          <mxGeometry x="400" y="320" width="110" height="40" as="geometry" />
        </mxCell>
        <mxCell id="hfKLFoB1jKgI26_XCXUh-180" value="local" style="rounded=0;whiteSpace=wrap;html=1;fillColor=#d80073;fontColor=#ffffff;strokeColor=#A50040;" vertex="1" parent="1">
          <mxGeometry x="280" y="350" width="80" height="20" as="geometry" />
        </mxCell>
      </root>
    </mxGraphModel>
  </diagram>
</mxfile>
